<?xml version="1.0" encoding="UTF-8"?>
<svg width="90px" height="90px" viewBox="0 0 90 90" version="1.1" xmlns="http://www.w3.org/2000/svg" xmlns:xlink="http://www.w3.org/1999/xlink">
    <!-- Generator: Sketch 49.3 (51167) - http://www.bohemiancoding.com/sketch -->
    <title>Rectangle 26</title>
    <desc>Created with Sketch.</desc>
    <defs>
        <path d="M28.5287013,3.55271368e-15 L46.4285714,17.8998701 L46.4285714,45 C46.4285714,51.0751322 41.5037037,56 35.4285714,56 L11,56 C4.92486775,56 7.43989126e-16,51.0751322 0,45 L0,11 C-7.43989126e-16,4.92486775 4.92486775,1.11598369e-15 11,0 L28.5287013,0 Z" id="path-1"></path>
        <path d="M28.5287013,3.55271368e-15 L46.4285714,17.8998701 L46.4285714,45 C46.4285714,51.0751322 41.5037037,56 35.4285714,56 L11,56 C4.92486775,56 7.43989126e-16,51.0751322 0,45 L0,11 C-7.43989126e-16,4.92486775 4.92486775,1.11598369e-15 11,0 L28.5287013,0 Z" id="path-2"></path>
        <path d="M43.6908585,51.9860269 C39.7211554,50.6861981 36.8561055,46.9752571 36.8561055,42.6002301 C36.8561055,37.1429133 41.3139923,32.718884 46.8130742,32.718884 C52.3121562,32.718884 56.7700429,37.1429133 56.7700429,42.6002301 C56.7700429,46.9752571 53.9049931,50.6861981 49.9352899,51.9860269 L46.8130742,42.8535979 L43.6908585,51.9860269 Z" id="path-3"></path>
    </defs>
    <g id="Page-1" stroke="none" stroke-width="1" fill="none" fill-rule="evenodd">
        <g id="派智1改" transform="translate(-915.000000, -903.000000)">
            <rect id="Rectangle-5-Copy" x="760" y="872" width="400" height="544"></rect>
            <g id="Group-60" transform="translate(915.000000, 903.000000)">
                <rect id="Rectangle-26" x="0" y="0" width="90" height="90"></rect>
                <g id="Group-3" transform="translate(15.000000, 17.000000)">
                    <g id="Group-4">
                        <g id="Combined-Shape" stroke-linecap="round" stroke-linejoin="round">
                            <use fill="#92DFFF" fill-rule="evenodd" xlink:href="#path-1"></use>
                            <path stroke="#24A1F5" stroke-width="2" d="M28.9429149,-1 L47.4285714,17.4856566 L47.4285714,45 C47.4285714,51.627417 42.0559884,57 35.4285714,57 L11,57 C4.372583,57 -1,51.627417 -1,45 L-1,11 C-1,4.372583 4.372583,-1 11,-1 L28.9429149,-1 Z"></path>
                        </g>
                        <g id="Combined-Shape">
                            <use fill="#EBF3F9" fill-rule="evenodd" xlink:href="#path-2"></use>
                            <path stroke="#FFFFFF" stroke-width="2" d="M28.1144877,1 L11,1 C5.4771525,1 1,5.4771525 1,11 L1,45 C1,50.5228475 5.4771525,55 11,55 L35.4285714,55 C40.9514189,55 45.4285714,50.5228475 45.4285714,45 L45.4285714,18.3140837 L28.1144877,1 Z"></path>
                        </g>
                        <path d="M30.6994988,12.4529444 L37.8851668,19.5644799 C38.2777107,19.9529741 38.2809937,20.5861306 37.8924995,20.9786745 C37.7046739,21.1684581 37.4487496,21.2752436 37.1817359,21.2752436 L22.8103999,21.2752436 C22.2581152,21.2752436 21.8103999,20.8275283 21.8103999,20.2752436 C21.8103999,20.0082299 21.9171854,19.7523056 22.106969,19.5644799 L29.292637,12.4529444 C29.6823056,12.0672959 30.3098303,12.0672959 30.6994988,12.4529444 Z" id="Triangle" fill="#24A1F5" transform="translate(29.996068, 16.662130) rotate(-135.000000) translate(-29.996068, -16.662130) "></path>
                        <rect id="Rectangle-27" fill="#FFFFFF" x="6.42857143" y="26.9367089" width="32.8571429" height="1.41772152"></rect>
                        <rect id="Rectangle-27-Copy" fill="#FFFFFF" x="6.42857143" y="40.4050633" width="32.8571429" height="1.41772152"></rect>
                    </g>
                    <g id="Combined-Shape" transform="translate(46.813074, 42.352455) rotate(-110.000000) translate(-46.813074, -42.352455) ">
                        <use fill="#24A1F5" fill-rule="evenodd" xlink:href="#path-3"></use>
                        <path stroke="#FFFFFF" stroke-width="2" d="M46.8130742,45.9447996 L44.3177635,53.2435418 L43.3796782,52.9363778 C38.9259617,51.478065 35.8561055,47.3331249 35.8561055,42.6002301 C35.8561055,36.5889147 40.763407,31.718884 46.8130742,31.718884 C52.8627415,31.718884 57.7700429,36.5889147 57.7700429,42.6002301 C57.7700429,47.3331249 54.7001867,51.478065 50.2464702,52.9363778 L49.3083849,53.2435418 L46.8130742,45.9447996 Z"></path>
                    </g>
                </g>
            </g>
        </g>
    </g>
</svg>