<?xml version="1.0" encoding="UTF-8"?>
<svg width="90px" height="90px" viewBox="0 0 90 90" version="1.1" xmlns="http://www.w3.org/2000/svg" xmlns:xlink="http://www.w3.org/1999/xlink">
    <!-- Generator: Sketch 49.3 (51167) - http://www.bohemiancoding.com/sketch -->
    <title>Rectangle 26 Copy 2</title>
    <desc>Created with Sketch.</desc>
    <defs>
        <path d="M21.3490415,1.67685987 C23.5299262,-0.65422748 25.8539283,-0.554893393 28.3210478,1.97486213 C31.1647978,1.54057904 34.4376838,-0.572931985 33.3670956,3.5073989 C25.7048407,9.27982537 25.3248162,14.2701134 32.2270221,18.4782629 C42.5803309,24.7904871 47.2255515,41.4077665 36.8941176,50.5508732 C31.7801029,54.0040038 26.687307,55.7890549 21.61573,55.9060265 L21.61573,55.9121783 C21.5268403,55.9121783 21.4379441,55.9116656 21.3490415,55.9106401 C21.2601388,55.9116656 21.1712426,55.9121783 21.0823529,55.9121783 L21.0823529,55.9060265 C16.0107759,55.7890549 10.91798,54.0040038 5.80396525,50.5508732 C-4.52746857,41.4077665 0.11775202,24.7904871 10.4710608,18.4782629 C17.3732667,14.2701134 16.9932422,9.27982537 9.33098731,3.5073989 C8.26039908,-0.572931985 11.5332851,1.54057904 14.3770351,1.97486213 C16.8441546,-0.554893393 19.1681567,-0.65422748 21.3490415,1.67685987 Z" id="path-1"></path>
        <path d="M21.3490415,1.67685987 C23.5299262,-0.65422748 25.8539283,-0.554893393 28.3210478,1.97486213 C31.1647978,1.54057904 34.4376838,-0.572931985 33.3670956,3.5073989 C25.7048407,9.27982537 25.3248162,14.2701134 32.2270221,18.4782629 C42.5803309,24.7904871 47.2255515,41.4077665 36.8941176,50.5508732 C31.7801029,54.0040038 26.687307,55.7890549 21.61573,55.9060265 L21.61573,55.9121783 C21.5268403,55.9121783 21.4379441,55.9116656 21.3490415,55.9106401 C21.2601388,55.9116656 21.1712426,55.9121783 21.0823529,55.9121783 L21.0823529,55.9060265 C16.0107759,55.7890549 10.91798,54.0040038 5.80396525,50.5508732 C-4.52746857,41.4077665 0.11775202,24.7904871 10.4710608,18.4782629 C17.3732667,14.2701134 16.9932422,9.27982537 9.33098731,3.5073989 C8.26039908,-0.572931985 11.5332851,1.54057904 14.3770351,1.97486213 C16.8441546,-0.554893393 19.1681567,-0.65422748 21.3490415,1.67685987 Z" id="path-2"></path>
    </defs>
    <g id="Page-1" stroke="none" stroke-width="1" fill="none" fill-rule="evenodd">
        <g id="派智1改" transform="translate(-1315.000000, -903.000000)">
            <rect id="Rectangle-5-Copy-2" x="1160" y="870" width="400" height="544"></rect>
            <g id="Group-61" transform="translate(1315.000000, 903.000000)">
                <rect id="Rectangle-26-Copy-2" x="0" y="0" width="90" height="90"></rect>
                <g id="Group-2" transform="translate(24.000000, 17.000000)">
                    <g id="Group-11">
                        <g id="Group-9">
                            <g id="Combined-Shape">
                                <use fill="#D8D8D8" fill-rule="evenodd" xlink:href="#path-1"></use>
                                <path stroke="#24A1F5" stroke-width="2" d="M21.3490415,54.9119115 L21.0823529,54.9180624 L21.0823529,55.9121783 L21.3490415,55.9121783 L21.61573,55.9121783 L21.61573,54.9180624 L21.3490415,54.9119115 Z M21.3490415,0.298224961 C23.6387774,-1.62395582 26.1843382,-1.40297472 28.6498169,0.897613298 C28.7206066,0.882526762 28.7932176,0.866284858 28.867836,0.848872233 C29.1581299,0.781130449 29.4503725,0.703331403 29.8814674,0.581746138 C31.9255242,0.00524392719 32.3752002,-0.0864195878 33.160705,0.121557224 C34.5464481,0.48845818 34.8503367,1.7946285 34.3343556,3.76118644 L34.2462123,4.09712678 L33.9688111,4.30610939 C26.8245834,9.68827558 26.5098345,13.8213965 32.7475833,17.6244385 C44.4667582,24.7694065 47.8061064,42.2293482 37.5568445,51.2997344 L37.4537208,51.3796339 C32.5133943,54.7154851 27.5641705,56.5492682 22.61573,56.8634756 L22.61573,56.9121783 L21.61573,56.9121783 C21.5229954,56.9121783 21.4302545,56.9116434 21.3605753,56.9105736 C21.2678284,56.9116434 21.1750875,56.9121783 21.0823529,56.9121783 L20.0823529,56.9121783 L20.0823529,56.8634756 C15.1339124,56.5492682 10.1846886,54.7154851 5.24436208,51.3796339 L5.14123844,51.2997344 C-5.10802353,42.2293482 -1.7686753,24.7694065 9.95049964,17.6244385 C16.1882484,13.8213965 15.8734995,9.68827558 8.72927181,4.30610939 L8.45187061,4.09712678 L8.36372733,3.76118644 C7.84774618,1.7946285 8.15163478,0.48845818 9.53737792,0.121557224 C10.3228827,-0.0864195878 10.7725587,0.00524392719 12.8166155,0.581746138 C13.2477104,0.703331403 13.539953,0.781130449 13.8302469,0.848872233 C13.9048653,0.866284858 13.9774763,0.882526762 14.048266,0.897613298 C16.5137447,-1.40297472 19.0593055,-1.62395582 21.3490415,0.298224961 Z"></path>
                            </g>
                            <g id="Combined-Shape">
                                <use fill="#EBF3F9" fill-rule="evenodd" xlink:href="#path-2"></use>
                                <path stroke="#FFFFFF" stroke-width="2" d="M32.567007,2.03986014 C32.5950235,2.04303165 32.6205955,2.04771915 32.6443864,2.05378875 C32.601988,2.02668101 32.5557413,1.97969552 32.5570558,1.98534548 C32.5609472,2.00207154 32.564272,2.02024446 32.567007,2.03986014 Z M32.6443864,2.05378875 C32.6458668,2.05416643 32.6473402,2.05454945 32.648807,2.05493779 C32.6444068,2.05377277 32.6388146,2.05080556 32.632569,2.04671415 Z M32.4784635,2.92715005 C32.4563513,3.0289387 32.4302287,3.13777437 32.3998356,3.25361135 L32.7653801,2.70868841 C32.6686597,2.78155353 32.5730207,2.85437459 32.4784635,2.92715005 Z M36.2798153,49.7589836 C36.2637118,49.7733506 36.2475704,49.7876934 36.2313908,49.8020119 L36.3345145,49.7221125 C36.3162826,49.7344231 36.2980515,49.7467118 36.2798211,49.7589785 Z M21.3882082,54.9110081 L21.3490415,54.9119115 L21.3142183,54.9111083 C21.2273907,54.9118216 21.1548694,54.9121783 21.0823529,54.9121783 L21.0823529,54.9180624 L20.61573,54.9288247 L20.61573,55.9121783 L21.3490415,55.9121783 L22.0823529,55.9121783 L22.0823529,54.9288247 L21.61573,54.9180624 L21.61573,54.9121783 C21.5398948,54.9121783 21.4640542,54.9117882 21.3882082,54.9110081 Z M6.41826183,49.7589785 C6.40003141,49.7467118 6.38180027,49.7344231 6.36356843,49.7221125 L6.46669207,49.8020119 C6.4505106,49.7876916 6.43436719,49.7733471 6.41826183,49.7589785 Z M10.2196194,2.92715005 C10.1250622,2.85437459 10.0294232,2.78155353 9.93270282,2.70868841 L10.2982473,3.25361135 C10.2678542,3.13777437 10.2417316,3.0289387 10.2196194,2.92715005 Z M10.1310759,2.03986014 C10.1338109,2.02024446 10.1371357,2.00207154 10.1410271,1.98534548 C10.14261,1.97854162 10.075221,2.04806835 10.0492759,2.05493779 C10.0743145,2.04830837 10.1013161,2.043229 10.1310759,2.03986014 Z"></path>
                            </g>
                        </g>
                        <g id="Group-29" transform="translate(14.494118, 28.329412)" stroke="#24A1F5" stroke-linecap="round" stroke-width="2">
                            <path d="M0,6.17067109 L14.4941176,6.17067109" id="Path-4"></path>
                            <path d="M1.97647059,10.7174814 L13.1764706,10.7174814" id="Path-4-Copy"></path>
                            <path d="M7.57647059,5.84589892 L7.57647059,16.2386081" id="Path-5" stroke-linejoin="round"></path>
                            <path d="M2.63529412,0 L7.24705882,5.84589892" id="Path-8" stroke-linejoin="round"></path>
                            <path d="M7.24705882,0 L11.8588235,5.84589892" id="Path-8" stroke-linejoin="round" transform="translate(9.552941, 2.922949) scale(-1, 1) translate(-9.552941, -2.922949) "></path>
                        </g>
                    </g>
                    <path d="M12.3607422,12.1939453 L30.4729147,12.1939453" id="Path-11" stroke="#FFFFFF" stroke-width="2"></path>
                </g>
            </g>
        </g>
    </g>
</svg>