<?xml version="1.0" encoding="UTF-8"?>
<svg width="90px" height="90px" viewBox="0 0 90 90" version="1.1" xmlns="http://www.w3.org/2000/svg" xmlns:xlink="http://www.w3.org/1999/xlink">
    <!-- Generator: Sketch 49.3 (51167) - http://www.bohemiancoding.com/sketch -->
    <title>Rectangle 26 Copy 5</title>
    <desc>Created with Sketch.</desc>
    <defs>
        <rect id="path-1" x="0" y="0" width="56" height="56"></rect>
    </defs>
    <g id="Page-1" stroke="none" stroke-width="1" fill="none" fill-rule="evenodd">
        <g id="派智1改" transform="translate(-1315.000000, -1175.000000)">
            <rect id="Rectangle-5-Copy-2" x="1160" y="870" width="400" height="544"></rect>
            <g id="Group-64" transform="translate(1315.000000, 1175.000000)">
                <rect id="Rectangle-26-Copy-5" x="0" y="0" width="90" height="90"></rect>
                <g id="Group-24" transform="translate(17.000000, 17.000000)">
                    <g id="Rectangle-8">
                        <use fill="#D8D8D8" fill-rule="evenodd" xlink:href="#path-1"></use>
                        <rect stroke="#24A1F5" stroke-width="2" x="-1" y="-1" width="58" height="58"></rect>
                    </g>
                    <g id="Group-23">
                        <rect id="Rectangle" fill="#EBF3F9" x="0" y="0" width="14" height="14"></rect>
                        <rect id="Rectangle-Copy-5" fill="#EBF3F9" x="0" y="28" width="14" height="14"></rect>
                        <rect id="Rectangle-Copy-10" fill="#24A1F5" x="28" y="28" width="14" height="14"></rect>
                        <rect id="Rectangle-Copy-4" fill="#24A1F5" x="14" y="14" width="14" height="14"></rect>
                        <rect id="Rectangle-Copy-14" fill="#EBF3F9" x="42" y="14" width="14" height="14"></rect>
                        <rect id="Rectangle-Copy-8" fill="#EBF3F9" x="14" y="42" width="14" height="14"></rect>
                        <rect id="Rectangle-Copy-12" fill="#EBF3F9" x="42" y="42" width="14" height="14"></rect>
                        <rect id="Rectangle-Copy-3" fill="#EBF3F9" x="28" y="0" width="14" height="14"></rect>
                        <rect id="Rectangle-Copy" fill="#FFFFFF" x="14" y="0" width="14" height="14"></rect>
                        <rect id="Rectangle-Copy-15" fill="#FFFFFF" x="42" y="0" width="14" height="14"></rect>
                        <rect id="Rectangle-Copy-7" fill="#FFFFFF" x="14" y="28" width="14" height="14"></rect>
                        <rect id="Rectangle-Copy-13" fill="#FFFFFF" x="42" y="28" width="14" height="14"></rect>
                        <rect id="Rectangle-Copy-2" fill="#FFFFFF" x="0" y="14" width="14" height="14"></rect>
                        <rect id="Rectangle-Copy-9" fill="#FFFFFF" x="28" y="14" width="14" height="14"></rect>
                        <rect id="Rectangle-Copy-6" fill="#FFFFFF" x="0" y="42" width="14" height="14"></rect>
                        <rect id="Rectangle-Copy-11" fill="#FFFFFF" x="28" y="42" width="14" height="14"></rect>
                    </g>
                </g>
            </g>
        </g>
    </g>
</svg>