<?xml version="1.0" encoding="UTF-8"?>
<svg width="344px" height="62px" viewBox="0 0 344 62" version="1.1" xmlns="http://www.w3.org/2000/svg" xmlns:xlink="http://www.w3.org/1999/xlink">
    <!-- Generator: Sketch 49.3 (51167) - http://www.bohemiancoding.com/sketch -->
    <title>Group 86</title>
    <desc>Created with Sketch.</desc>
    <defs></defs>
    <g id="Page-1" stroke="none" stroke-width="1" fill="none" fill-rule="evenodd">
        <g id="派智1改" transform="translate(-406.000000, -73.000000)" fill="#24A1F5">
            <g id="Group-86" transform="translate(406.000000, 73.000000)">
                <text id="知识产权一站式服务平台" font-family="PingFangSC-Regular, PingFang SC" font-size="18" font-weight="normal">
                    <tspan x="147" y="38">知识产权一站式服务平台</tspan>
                </text>
                <rect id="Rectangle-11" x="125" y="3" width="2" height="56" rx="1"></rect>
                <g id="派智-copy">
                    <path d="M40.285986,50.0550749 L48.5260367,58.0543094 C48.8525791,58.3713085 49.3848589,58.3713085 49.7114013,58.0543094 L52.6075523,55.2427987 C52.9340946,54.9257996 52.9340946,54.4085636 52.6075523,54.0915645 L46.0587693,47.7341703 C45.8952344,47.5759268 45.8129394,47.3828595 45.8129394,47.1585532 L45.8129394,34.6025205 C45.8129394,34.1544199 46.1895972,33.7887699 46.6517153,33.7887699 L48.3234644,33.7887699 C48.785055,33.7887699 49.1617129,33.4231199 49.1617129,32.9750194 L49.1617129,28.9984473 C49.1617129,28.5503468 48.785055,28.1846967 48.3234644,28.1846967 L40.878932,28.1846967 C40.4168139,28.1846967 40.040156,28.5503468 40.040156,28.9984473 L40.040156,49.4794578 C40.040156,49.7037641 40.122451,49.8968314 40.285986,50.0550749 Z M48.3234644,7.1147541 C48.785055,7.1147541 49.1617129,7.48040413 49.1617129,7.92850465 L49.1617129,11.9045646 C49.1617129,12.3531772 48.785055,12.7183152 48.3234644,12.7183152 L24.8303517,12.7183152 C24.3687612,12.7183152 23.9921033,13.0839652 23.9921033,13.5325778 L23.9921033,51.8331378 C23.9921033,52.0574441 23.9098083,52.2505115 23.7462734,52.408755 L15.5067502,60.4079894 C15.1802078,60.7249885 14.647928,60.7249885 14.3213856,60.4079894 L11.4252346,57.5964787 C11.0986923,57.2794796 11.0986923,56.7622436 11.4252346,56.4452445 L17.9740176,50.0878503 C18.1375525,49.9296068 18.2198475,49.7365395 18.2198475,49.5122332 L18.2198475,7.92850465 C18.2198475,7.48040413 18.5959779,7.1147541 19.058096,7.1147541 L48.3234644,7.1147541 Z M34.3834298,17.4261873 L48.3234644,17.4261873 C48.785055,17.4261873 49.1617129,17.7918373 49.1617129,18.2399378 L49.1617129,22.2159978 C49.1617129,22.6646104 48.785055,23.0297483 48.3234644,23.0297483 L35.2216782,23.0297483 C34.7600877,23.0297483 34.3834298,23.3953984 34.3834298,23.844011 L34.3834298,60.169856 C34.3834298,60.6179565 34.0067719,60.9836066 33.5451813,60.9836066 L29.4488949,60.9836066 C28.9873044,60.9836066 28.6106465,60.6179565 28.6106465,60.169856 L28.6106465,18.2399378 C28.6106465,17.7918373 28.9873044,17.4261873 29.4488949,17.4261873 L34.3834298,17.4261873 Z" id="Fill-1"></path>
                    <path d="M11.9631951,49.3691021 L4.118724,57.6871998 C3.80785795,58.016835 3.30062902,58.016835 2.98976298,57.6871998 L0.233149534,54.7636174 C-0.0777165113,54.4345147 -0.0777165113,53.8966608 0.233149534,53.5670255 L6.46754547,46.9556822 C6.62272739,46.7911308 6.70107166,46.5903675 6.70107166,46.3576525 L6.70107166,29.3912893 C6.70107166,29.1580418 6.62272739,28.957811 6.46754547,28.7927271 L0.233149534,22.1819163 C-0.0777165113,21.8522811 -0.0777165113,21.3144271 0.233149534,20.9847919 L2.98976298,18.0612095 C3.30062902,17.7315743 3.80785795,17.7315743 4.118724,18.0612095 L11.9631951,26.3793072 C12.118377,26.5443911 12.1967213,26.7446219 12.1967213,26.9778694 C12.1967213,34.2420929 12.1967213,41.5063164 12.1967213,48.7710724 C12.1967213,49.0037874 12.118377,49.2045507 11.9631951,49.3691021 Z M7.96512632,8.13114754 C10.302397,8.13114754 12.1967213,10.1398457 12.1967213,12.618234 C12.1967213,15.0960899 10.302397,17.1053206 7.96512632,17.1053206 C5.62785561,17.1053206 3.73353134,15.0960899 3.73353134,12.618234 C3.73353134,10.1398457 5.62785561,8.13114754 7.96512632,8.13114754 Z" id="Fill-2"></path>
                    <path d="M59.7813749,7.1147541 L63.8395439,7.1147541 C64.2974207,7.1147541 64.670099,7.49042637 64.670099,7.95080906 L64.670099,9.32932638 C64.670099,9.78970907 65.0433001,10.1653813 65.5006542,10.1653813 L82.5137071,10.1653813 C82.971584,10.1653813 83.3442623,10.5410536 83.3442623,11.0019625 L83.3442623,15.0864777 C83.3442623,15.5473865 82.971584,15.9230588 82.5137071,15.9230588 L59.7813749,15.9230588 C59.3240207,15.9230588 58.9508197,15.5473865 58.9508197,15.0864777 L58.9508197,7.95080906 C58.9508197,7.49042637 59.3240207,7.1147541 59.7813749,7.1147541 Z M58.9508197,23.7806075 L58.9508197,19.6955661 C58.9508197,19.2346573 59.3240207,18.8595111 59.7813749,18.8595111 L82.5137071,18.8595111 C82.971584,18.8595111 83.3442623,19.2346573 83.3442623,19.6955661 L83.3442623,23.7806075 C83.3442623,24.2415163 82.971584,24.6171886 82.5137071,24.6171886 L76.1452461,24.6171886 C75.8018385,24.6171886 75.5091318,24.8139693 75.3774138,25.1333434 C75.2462185,25.4521913 75.3152136,25.8005037 75.557742,26.044638 L82.7572809,33.2913247 C83.0808263,33.6170125 83.0808263,34.1484257 82.7572809,34.4741136 L79.8877101,37.3626861 C79.5641646,37.6878478 79.0362473,37.6878478 78.7127018,37.3626861 L71.7353064,30.3385616 C71.4112383,30.0128737 70.8838436,30.0128737 70.5602982,30.3385616 L63.5823801,37.3626861 C63.2588347,37.6878478 62.7309173,37.6878478 62.4073719,37.3626861 L59.5383238,34.4741136 C59.2147784,34.1484257 59.2147784,33.6170125 59.5383238,33.2913247 L66.7373399,26.044638 C66.9798683,25.8005037 67.0488635,25.4521913 66.9176682,25.1333434 C66.7859502,24.8139693 66.4932435,24.6171886 66.1498358,24.6171886 L59.7813749,24.6171886 C59.3240207,24.6171886 58.9508197,24.2415163 58.9508197,23.7806075 Z" id="Fill-3"></path>
                    <path d="M58.9508197,44.7594073 L58.9508197,40.5097495 C58.9508197,40.0302055 59.3331351,39.6393443 59.8016589,39.6393443 L107.903259,39.6393443 C108.372318,39.6393443 108.754098,40.0302055 108.754098,40.5097495 C108.754098,47.3832137 108.754098,54.2561305 108.754098,61.1301422 C108.754098,61.6091388 108.372318,62 107.903259,62 L59.8016589,62 C59.3331351,62 58.9508197,61.6091388 58.9508197,61.1301422 L58.9508197,48.6942958 C58.9508197,48.2152992 59.3331351,47.824438 59.8016589,47.824438 L102.043766,47.824438 C102.512826,47.824438 102.894606,47.4335768 102.894606,46.9545802 L102.894606,46.4996703 C102.894606,46.0201263 102.512826,45.6298125 102.043766,45.6298125 L59.8016589,45.6298125 C59.3331351,45.6298125 58.9508197,45.2389513 58.9508197,44.7594073 Z M64.809777,54.6847641 L64.809777,55.139674 C64.809777,55.6186706 65.1920924,56.0095318 65.6606162,56.0095318 L102.043766,56.0095318 C102.512826,56.0095318 102.894606,55.6186706 102.894606,55.139674 L102.894606,54.6847641 C102.894606,54.2057675 102.512826,53.8149062 102.043766,53.8149062 L65.6606162,53.8149062 C65.1920924,53.8149062 64.809777,54.2057675 64.809777,54.6847641 Z" id="Fill-4"></path>
                    <path d="M94.595251,9.83660466 L98.5200086,9.83660466 C98.9627758,9.83660466 99.3236615,10.2120235 99.3236615,10.6720956 L99.3236615,14.754907 C99.3236615,15.2149791 98.9627758,15.590398 98.5200086,15.590398 L94.595251,15.590398 C94.1529892,15.590398 93.7921035,15.2149791 93.7921035,14.754907 L93.7921035,10.6720956 C93.7921035,10.2120235 94.1529892,9.83660466 94.595251,9.83660466 Z M106.721311,36.7705406 C106.721311,37.2306127 106.360931,37.6065574 105.918164,37.6065574 C99.6779763,37.6065574 93.4372832,37.6065574 87.1970955,37.6065574 C86.7543283,37.6065574 86.3934426,37.2306127 86.3934426,36.7705406 L86.3934426,10.6726214 C86.3934426,10.2120235 86.7543283,9.83660466 87.1970955,9.83660466 L91.1218531,9.83660466 C91.5646204,9.83660466 91.9250006,10.2120235 91.9250006,10.6726214 C91.9250006,17.4538215 91.9250006,24.2350215 91.9250006,31.0172731 C91.9250006,31.4773452 92.2853807,31.8527641 92.728148,31.8527641 L100.387112,31.8527641 C100.829879,31.8527641 101.190259,31.4773452 101.190259,31.0172731 L101.190259,10.6726214 C101.190259,10.2120235 101.551145,9.83660466 101.993912,9.83660466 L105.918164,9.83660466 C106.360931,9.83660466 106.721311,10.2120235 106.721311,10.6726214 C106.721311,19.3719278 106.721311,28.0712342 106.721311,36.7705406 Z M100.126809,1.07420266 L101.158922,1.07420266 C101.601183,1.07420266 101.962069,1.4496215 101.962069,1.90969361 L101.962069,2.98337048 C101.962069,3.44344259 101.601183,3.81886143 101.158922,3.81886143 L100.126809,3.81886143 C99.6840416,3.81886143 99.3236615,3.44344259 99.3236615,2.98337048 L99.3236615,1.90969361 C99.3236615,1.4496215 99.6840416,1.07420266 100.126809,1.07420266 Z M92.3566481,0 L94.4218843,0 C94.8641461,0 95.2250318,0.374893047 95.2250318,0.835490956 L95.2250318,2.98337048 C95.2250318,3.44344259 94.8641461,3.81886143 94.4218843,3.81886143 L92.3566481,3.81886143 C91.9138808,3.81886143 91.5535006,3.44344259 91.5535006,2.98337048 L91.5535006,0.835490956 C91.5535006,0.374893047 91.9138808,0 92.3566481,0 Z M96.0286847,3.81886143 L98.5200086,3.81886143 C98.9627758,3.81886143 99.3236615,4.19428028 99.3236615,4.65435239 L99.3236615,7.24653012 C99.3236615,7.70660223 98.9627758,8.08202108 98.5200086,8.08202108 L96.0286847,8.08202108 C95.5859174,8.08202108 95.2250318,7.70660223 95.2250318,7.24653012 L95.2250318,4.65435239 C95.2250318,4.19428028 95.5859174,3.81886143 96.0286847,3.81886143 Z" id="Fill-5"></path>
                </g>
            </g>
        </g>
    </g>
</svg>