<?xml version="1.0" encoding="UTF-8"?>
<svg width="30px" height="30px" viewBox="0 0 30 30" version="1.1" xmlns="http://www.w3.org/2000/svg" xmlns:xlink="http://www.w3.org/1999/xlink">
    <!-- Generator: Sketch 49.3 (51167) - http://www.bohemiancoding.com/sketch -->
    <title>Rectangle 54</title>
    <desc>Created with Sketch.</desc>
    <defs></defs>
    <g id="Page-1" stroke="none" stroke-width="1" fill="none" fill-rule="evenodd">
        <rect id="Rectangle-54" x="0" y="0" width="30" height="30"></rect>
        <g id="qq-(1)" transform="translate(1.000000, 0.000000)" fill="#FFFFFF" fill-rule="nonzero">
            <path d="M27.3121246,20.0366667 C26.6799161,16.382378 24.0247161,13.9881983 24.0247161,13.9881983 C24.4039861,10.6701491 23.0131343,10.0817985 23.0131343,10.0817985 C22.720278,-0.183875093 13.847144,-0.00411938583 13.6608498,0.000754630602 C13.4743145,-0.00411938583 4.59997498,-0.183875093 4.30846198,10.0818671 C4.30846198,10.0818671 2.91757567,10.6701834 3.29691458,13.9882669 C3.29691458,13.9882669 0.64154237,16.3824466 0.00940273277,20.0367353 C0.00940273277,20.0367353 -0.32829635,26.2113108 3.04390719,20.7928969 C3.04390719,20.7928969 3.8026883,22.8505281 5.19350571,24.6990907 C5.19350571,24.6990907 2.70634587,25.539724 2.91757571,27.7234279 C2.91757571,27.7234279 2.83284958,30.1592428 8.22814793,29.9917408 C8.22814793,29.9917408 12.0213646,29.6980289 13.1594501,28.1016116 L13.6564412,28.1016116 L13.6652927,28.1016116 L14.1622494,28.1016116 C15.3001627,29.6980975 19.0934828,29.9917408 19.0934828,29.9917408 C24.4874379,30.1592428 24.4039517,27.7234279 24.4039517,27.7234279 C24.6139072,25.539724 22.1280561,24.6990907 22.1280561,24.6990907 C23.5189079,22.8505967 24.2774479,20.7928969 24.2774479,20.7928969 C27.6484116,26.2112421 27.3121246,20.0366667 27.3121246,20.0366667 Z" id="Shape"></path>
        </g>
    </g>
</svg>