<?xml version="1.0" encoding="UTF-8"?>
<svg width="140px" height="100px" viewBox="0 0 140 100" version="1.1" xmlns="http://www.w3.org/2000/svg" xmlns:xlink="http://www.w3.org/1999/xlink">
    <!-- Generator: Sketch 49.3 (51167) - http://www.bohemiancoding.com/sketch -->
    <title>Rectangle 28 Copy 2</title>
    <desc>Created with Sketch.</desc>
    <defs>
        <rect id="path-1" x="0" y="0" width="108" height="80"></rect>
        <rect id="path-2" x="0" y="0" width="108" height="80"></rect>
        <circle id="path-3" cx="9.6737489" cy="9.6737489" r="9.6737489"></circle>
        <circle id="path-4" cx="9.6737489" cy="9.6737489" r="9.6737489"></circle>
        <path d="M2.93584601e-14,18.3450643 C0.529981693,8.12424961 8.98516807,0 19.3378746,0 C29.6905811,0 38.1457675,8.12424961 38.6757492,18.3450643 L2.48689958e-14,18.3450643 Z" id="path-5"></path>
        <path d="M2.91815183e-14,18.3450643 C0.529981693,8.12424961 8.98516807,0 19.3378746,0 C29.6905811,0 38.1457675,8.12424961 38.6757492,18.3450643 L2.48689958e-14,18.3450643 Z" id="path-6"></path>
    </defs>
    <g id="Page-1" stroke="none" stroke-width="1" fill="none" fill-rule="evenodd">
        <g id="122331" transform="translate(-1290.000000, -1009.000000)">
            <g id="Group-19" transform="translate(360.000000, 870.000000)">
                <rect id="Rectangle-5-Copy-2" x="800" y="1" width="400" height="544"></rect>
                <rect id="Rectangle-28-Copy-2" x="930" y="139" width="140" height="100"></rect>
                <g id="Group-37" transform="translate(946.000000, 149.000000)">
                    <g id="Rectangle-17">
                        <use fill="#92DFFF" fill-rule="evenodd" xlink:href="#path-1"></use>
                        <rect stroke="#24A1F5" stroke-width="2" x="-1" y="-1" width="110" height="82"></rect>
                    </g>
                    <g id="Group-36">
                        <g id="Rectangle-17">
                            <use fill="#EBF3F9" fill-rule="evenodd" xlink:href="#path-2"></use>
                            <rect stroke="#FFFFFF" stroke-width="2" x="1" y="1" width="106" height="78"></rect>
                        </g>
                        <g id="Group-26" transform="translate(12.467532, 17.662338)">
                            <g id="Group-23" transform="translate(9.673749, 0.000000)">
                                <g id="Oval-8">
                                    <use fill="#92DFFF" fill-rule="evenodd" xlink:href="#path-3"></use>
                                    <circle stroke="#2FADFA" stroke-width="2" cx="9.6737489" cy="9.6737489" r="10.6737489"></circle>
                                </g>
                                <g id="Oval-8">
                                    <use fill="#2FADFA" fill-rule="evenodd" xlink:href="#path-4"></use>
                                    <circle stroke="#FFFFFF" stroke-width="2" cx="9.6737489" cy="9.6737489" r="8.6737489"></circle>
                                </g>
                            </g>
                            <g id="Group-24" transform="translate(0.000000, 26.788843)">
                                <g id="Combined-Shape">
                                    <use fill="#92DFFF" fill-rule="evenodd" xlink:href="#path-5"></use>
                                    <path stroke="#2FADFA" stroke-width="2" d="M-0.998658329,18.2932807 C-0.439196371,7.50393253 8.49002319,-1 19.3378746,-1 C30.185726,-1 39.1149456,7.50393253 39.6744075,18.2932807 L39.7289459,19.3450643 L-1.05319665,19.3450643 L-0.998658329,18.2932807 Z"></path>
                                </g>
                                <g id="Combined-Shape">
                                    <use fill="#EBF3F9" fill-rule="evenodd" xlink:href="#path-6"></use>
                                    <path stroke="#FFFFFF" stroke-width="2" d="M1.08324059,17.3450643 L37.5925086,17.3450643 C36.5853048,8.12196708 28.764696,1 19.3378746,1 C9.91105324,1 2.09044444,8.12196708 1.08324059,17.3450643 Z"></path>
                                </g>
                            </g>
                        </g>
                        <g id="Group-35" transform="translate(59.220779, 23.896104)" stroke="#24A1F5" stroke-width="2">
                            <path d="M0,1 L30.1298701,1" id="Path-2"></path>
                            <path d="M0,16 L30.1298701,16" id="Path-2-Copy"></path>
                            <path d="M0,32 L18.727257,32" id="Path-2-Copy-2"></path>
                        </g>
                    </g>
                </g>
            </g>
        </g>
    </g>
</svg>