<?xml version="1.0" encoding="UTF-8"?>
<svg width="140px" height="100px" viewBox="0 0 140 100" version="1.1" xmlns="http://www.w3.org/2000/svg" xmlns:xlink="http://www.w3.org/1999/xlink">
    <!-- Generator: Sketch 49.3 (51167) - http://www.bohemiancoding.com/sketch -->
    <title>Rectangle 28</title>
    <desc>Created with Sketch.</desc>
    <defs>
        <circle id="path-1" cx="12.0823529" cy="12.0823529" r="12.0823529"></circle>
        <circle id="path-2" cx="12.0823529" cy="12.0823529" r="12.0823529"></circle>
        <path d="M3.34662853e-14,22.912683 C0.6619384,10.1470539 11.2223268,3.55271368e-14 24.1526867,3.55271368e-14 C37.0830465,3.55271368e-14 47.6434349,10.1470539 48.3053733,22.912683 L2.84217094e-14,22.912683 Z" id="path-3"></path>
        <path d="M3.34385297e-14,22.912683 C0.6619384,10.1470539 11.2223268,0 24.1526867,0 C37.0830465,0 47.6434349,10.1470539 48.3053733,22.912683 L3.55271368e-14,22.912683 Z" id="path-4"></path>
        <path d="M14.3483308,54.1319408 C18.0609956,58.4092487 25.073706,66.1261943 32.9034752,64.9354793 C35.2601312,64.578728 37.8367297,63.2017611 40.1643024,61.9091171 L31.3193443,46.2231835 C28.6127798,46.8569961 25.7617077,46.5484294 22.6725161,44.4422074 C16.6322786,40.3103798 11.9798597,30.4844323 15.417142,24.3612843 C16.0633366,23.2141207 16.7786039,22.4644798 17.5411317,21.7936022 L8.61528563,5.97238123 C5.6351564,7.87381882 1.79525216,11.0410282 0.62737596,14.9847507 C-0.680463614,19.3917863 0.298371147,24.9988033 1.36627351,29.3159562 C3.54115892,38.1105684 7.89820055,46.6855702 14.3483308,54.1319408 Z M19.6660302,19.3621343 C20.7057581,21.2070477 22.5998079,20.2711549 24.8374042,18.9562719 C27.0813624,17.6432421 28.0520175,15.0829731 27.0150161,13.2334266 L20.5230786,1.72657856 C19.4833507,-0.119261443 16.82132,-0.553849276 14.5800884,0.757327235 C12.3334036,2.07499013 10.5938588,3.27404483 11.6344955,5.12359135 L19.6660302,19.3621343 Z M49.7690617,53.580598 L43.2798507,42.0746766 C42.2364874,40.2251301 39.5744568,39.7923956 37.3314074,41.1054253 C35.0847226,42.4203083 33.349722,43.6221429 34.3903588,45.4716894 L42.4191669,59.7046726 C43.4625302,61.5542191 45.3529446,60.6183263 47.5950851,59.3025167 C49.8390434,57.9904136 50.8133339,55.4282913 49.7690617,53.580598 Z" id="path-5"></path>
        <path d="M14.3483308,54.1319408 C18.0609956,58.4092487 25.073706,66.1261943 32.9034752,64.9354793 C35.2601312,64.578728 37.8367297,63.2017611 40.1643024,61.9091171 L31.3193443,46.2231835 C28.6127798,46.8569961 25.7617077,46.5484294 22.6725161,44.4422074 C16.6322786,40.3103798 11.9798597,30.4844323 15.417142,24.3612843 C16.0633366,23.2141207 16.7786039,22.4644798 17.5411317,21.7936022 L8.61528563,5.97238123 C5.6351564,7.87381882 1.79525216,11.0410282 0.62737596,14.9847507 C-0.680463614,19.3917863 0.298371147,24.9988033 1.36627351,29.3159562 C3.54115892,38.1105684 7.89820055,46.6855702 14.3483308,54.1319408 Z M19.6660302,19.3621343 C20.7057581,21.2070477 22.5998079,20.2711549 24.8374042,18.9562719 C27.0813624,17.6432421 28.0520175,15.0829731 27.0150161,13.2334266 L20.5230786,1.72657856 C19.4833507,-0.119261443 16.82132,-0.553849276 14.5800884,0.757327235 C12.3334036,2.07499013 10.5938588,3.27404483 11.6344955,5.12359135 L19.6660302,19.3621343 Z M43.2798507,42.0746766 C42.2364874,40.2251301 39.5744568,39.7923956 37.3314074,41.1054253 C35.0847226,42.4203083 33.349722,43.6221429 34.3903588,45.4716894 L42.4191669,59.7046726 C43.4625302,61.5542191 45.3529446,60.6183263 47.5950851,59.3025167 C49.8390434,57.9904136 50.8133339,55.4282913 49.7690617,53.580598 L43.2798507,42.0746766 Z" id="path-6"></path>
    </defs>
    <g id="Page-1" stroke="none" stroke-width="1" fill="none" fill-rule="evenodd">
        <g id="122331" transform="translate(-490.000000, -1009.000000)">
            <g id="Group-19" transform="translate(360.000000, 870.000000)">
                <rect id="Rectangle-5" x="0" y="0" width="400" height="544"></rect>
                <rect id="Rectangle-28" x="130" y="139" width="140" height="100"></rect>
                <g id="Group-12" transform="translate(153.000000, 149.000000)">
                    <g id="Group-26" transform="translate(45.752941, 9.858824)">
                        <g id="Group-23" transform="translate(12.082353, 0.000000)">
                            <g id="Oval-8">
                                <use fill="#92DFFF" fill-rule="evenodd" xlink:href="#path-1"></use>
                                <circle stroke="#2FADFA" stroke-width="2" cx="12.0823529" cy="12.0823529" r="13.0823529"></circle>
                            </g>
                            <g id="Oval-8">
                                <use fill="#2FADFA" fill-rule="evenodd" xlink:href="#path-2"></use>
                                <circle stroke="#FFFFFF" stroke-width="2" cx="12.0823529" cy="12.0823529" r="11.0823529"></circle>
                            </g>
                        </g>
                        <g id="Group-24" transform="translate(0.000000, 33.458824)">
                            <g id="Combined-Shape">
                                <use fill="#92DFFF" fill-rule="evenodd" xlink:href="#path-3"></use>
                                <path stroke="#2FADFA" stroke-width="2" d="M-0.998658329,22.8608994 C-0.306752281,9.51733751 10.7365639,-1 24.1526867,-1 C37.5688094,-1 48.6121256,9.51733751 49.3040317,22.8608994 L49.35857,23.912683 L-1.05319665,23.912683 L-0.998658329,22.8608994 Z"></path>
                            </g>
                            <g id="Combined-Shape">
                                <use fill="#EBF3F9" fill-rule="evenodd" xlink:href="#path-4"></use>
                                <path stroke="#FFFFFF" stroke-width="2" d="M1.07695417,21.912683 L47.2284192,21.912683 C46.0839842,10.1342094 36.1483953,1 24.1526867,1 C12.156978,1 2.22138917,10.1342094 1.07695417,21.912683 Z"></path>
                            </g>
                        </g>
                    </g>
                    <g id="沟通" transform="translate(35.248827, 39.731370) rotate(-20.000000) translate(-35.248827, -39.731370) translate(9.748827, 6.731370)" fill-rule="nonzero">
                        <g id="Group-25" transform="translate(-0.000000, 0.000000)">
                            <g id="Shape">
                                <use fill="#92DFFF" fill-rule="evenodd" xlink:href="#path-5"></use>
                                <path stroke="#2FADFA" stroke-width="2" d="M13.5931369,54.7874423 L13.5924714,54.7866747 C7.15868515,47.3591725 2.65189395,38.6801631 0.395531604,29.5560815 C-1.09248992,23.5405349 -1.51148557,18.6771295 -0.331464138,14.7008041 C0.753080048,11.0384799 3.90833035,7.78939093 8.07740546,5.12935992 L8.96746008,4.56147068 L18.8106158,22.0086395 L18.2016781,22.5443874 C17.3688591,23.2771078 16.8035207,23.9376363 16.2891425,24.8507893 C13.3587189,30.0710232 17.0733807,39.4005363 23.2358447,43.6159744 C25.8826818,45.4205976 28.4040742,45.8788167 31.0913366,45.2495242 L31.8218772,45.0784491 L41.5297335,62.294674 L40.6498156,62.7833464 C37.1788037,64.7110123 35.1916303,65.6004908 33.053822,65.9241126 C29.203288,66.509684 25.3557952,65.1904425 21.4953579,62.394073 C18.7733279,60.4223271 16.5321492,58.1734362 13.5931369,54.7874423 Z M18.7949496,19.8532744 L10.7629737,5.6139481 C9.46702389,3.31062807 10.6540169,1.90063867 14.0751283,-0.105815483 C16.7633647,-1.67850093 20.0553026,-1.14144805 21.3940281,1.23520598 L27.8872696,12.7443726 C29.2151161,15.1126566 28.0221474,18.2513662 25.3440378,19.8184333 C21.9175008,21.8319759 20.1042552,22.1763533 18.7949496,19.8532744 Z M50.6398761,53.0889859 C51.9766142,55.4547756 50.7821932,58.5973349 48.1012201,60.164971 C44.6676746,62.1799617 42.8604293,62.5221735 41.548187,60.1959913 L33.518837,45.9620462 C32.2226596,43.6583218 33.4144554,42.2391671 36.8262209,40.2424151 C39.5167986,38.6674125 42.8082138,39.2033316 44.1508716,41.5834306 L50.6398761,53.0889859 Z"></path>
                            </g>
                            <g id="Shape">
                                <use fill="#EBF3F9" fill-rule="evenodd" xlink:href="#path-6"></use>
                                <path stroke="#FFFFFF" stroke-width="2" d="M15.1038577,53.4768229 C21.6728735,61.0448163 26.9067093,64.8359423 32.7538002,63.946744 C34.402686,63.6971352 36.0725424,62.9955713 38.7964912,61.5193392 L30.8053962,47.3476738 C27.8418891,47.8575298 24.9824866,47.227466 22.1079222,45.2675762 C15.1740543,40.5244603 11.0339864,30.1265238 14.5458636,23.8704952 C15.0456914,22.9831707 15.5908597,22.2814568 16.2827757,21.59829 L8.27182042,7.39872907 C4.91520335,9.70428642 2.42987326,12.4198081 1.58605244,15.2692492 C0.53478784,18.8117025 0.928508537,23.381734 2.33703016,29.0758906 C4.51743828,37.8928351 8.87660142,46.2876301 15.1038577,53.4768229 Z M15.1038577,53.4768229 C15.1039685,53.4769509 15.1040794,53.4770789 15.1041902,53.4772068 L15.1035247,53.4764393 C15.1036357,53.4765672 15.1037467,53.476695 15.1038577,53.4768229 Z M20.5370208,18.8708346 L20.5372091,18.8711687 C21.0140171,19.7172259 21.8334593,19.5616103 24.3323701,18.0931724 C26.1374158,17.036968 26.8903841,15.0559028 26.1440666,13.7247991 L19.6517943,2.2173571 C18.9112132,0.902595701 16.8788754,0.571036329 15.0859909,1.61991785 C12.5706066,3.09517091 12.0131852,3.75731322 12.5054862,4.63229169 L20.5370208,18.8708346 Z M42.408854,42.5659655 L42.4088782,42.5660083 C41.6651996,41.2477061 39.6330586,40.9168262 37.8365152,41.9684816 C35.3278547,43.4366871 34.7679317,44.1034265 35.2613387,44.9803708 L43.2901394,59.2133409 C43.7700731,60.0641085 44.5842919,59.9099317 47.0903167,58.4392619 C48.8964833,57.3831474 49.6495651,55.4015618 48.8980408,54.071844 L42.408854,42.5659655 Z M42.408854,42.5659655 L42.4088299,42.5659227 L42.408854,42.5659655 Z"></path>
                            </g>
                        </g>
                    </g>
                </g>
            </g>
        </g>
    </g>
</svg>