<?xml version="1.0" encoding="UTF-8"?>
<svg width="140px" height="100px" viewBox="0 0 140 100" version="1.1" xmlns="http://www.w3.org/2000/svg" xmlns:xlink="http://www.w3.org/1999/xlink">
    <!-- Generator: Sketch 49.3 (51167) - http://www.bohemiancoding.com/sketch -->
    <title>Rectangle 28 Copy</title>
    <desc>Created with Sketch.</desc>
    <defs>
        <path d="M10,53.7472028 L23.1318359,71 C24.8916016,67.85 28.9941406,66.275 35.4394531,66.275 C41.1914062,66.5638112 48.4550781,66.8359375 62.7939453,64.275 C67.3510742,63.1699219 69.9399414,65.9189453 81.6835937,44.5321678 C80.0371094,42.4745921 77.101888,43.4960373 72.8779297,47.5965035 C66.5419922,53.7472028 63.7685547,59.2656119 51.1416016,57.2504633 C38.5146484,55.2353147 35.4394531,57.5262238 35.4394531,51.0291958 C37.3645833,47.583042 42.2252604,46.4388112 50.0214844,47.5965035 C58.6145833,47.4782051 60.9495443,46.4567599 57.0263672,44.5321678 C36.9267578,42.4892774 24.5540365,42.4892774 19.9082031,44.5321678 C15.2623698,46.5750583 11.9596354,49.6467366 10,53.7472028 Z" id="path-1"></path>
        <path d="M10,54.0909528 L23.1318359,71.34375 C24.8916016,68.19375 28.9941406,66.61875 35.4394531,66.61875 C41.1914062,66.9075612 48.4550781,67.1796875 62.7939453,64.61875 C67.3510742,63.5136719 69.9399414,66.2626953 81.6835937,44.8759178 C80.0371094,42.8183421 77.101888,43.8397873 72.8779297,47.9402535 C66.5419922,54.0909528 63.7685547,59.6093619 51.1416016,57.5942133 C38.5146484,55.5790647 35.4394531,57.8699738 35.4394531,51.3729458 C37.3645833,47.926792 42.2252604,46.7825612 50.0214844,47.9402535 C58.6145833,47.8219551 60.9495443,46.8005099 57.0263672,44.8759178 C36.9267578,42.8330274 24.5540365,42.8330274 19.9082031,44.8759178 C15.2623698,46.9188083 11.9596354,49.9904866 10,54.0909528 Z" id="path-2"></path>
        <rect id="path-3" x="0" y="0" width="54" height="38"></rect>
        <rect id="path-4" x="0" y="0" width="54" height="38"></rect>
        <rect id="path-5" x="0" y="0" width="54" height="12"></rect>
        <rect id="path-6" x="0" y="0" width="54" height="12"></rect>
        <rect id="path-7" x="0" y="0" width="21" height="6"></rect>
        <rect id="path-8" x="0" y="0" width="21" height="6"></rect>
    </defs>
    <g id="Page-1" stroke="none" stroke-width="1" fill="none" fill-rule="evenodd">
        <g id="122331" transform="translate(-890.000000, -1009.000000)">
            <g id="Group-19" transform="translate(360.000000, 870.000000)">
                <rect id="Rectangle-5-Copy" x="400" y="0" width="400" height="544"></rect>
                <rect id="Rectangle-28-Copy" x="530" y="139" width="140" height="100"></rect>
                <g id="Group-18" transform="translate(559.000000, 150.000000)">
                    <g id="Path-21">
                        <use fill="#EBF3F9" fill-rule="evenodd" xlink:href="#path-1"></use>
                        <path stroke="#24A1F5" stroke-width="2" d="M36.4405162,51.3002776 C36.4669637,54.4767231 37.0190722,54.8046149 41.6375764,55.1973457 C41.9963225,55.2278514 43.3503563,55.3375697 43.5270229,55.3521887 C44.355303,55.4207277 45.0464161,55.4821991 45.7570326,55.5523046 C47.6165347,55.7357526 49.4035964,55.9604386 51.2991983,56.2629597 C59.1266117,57.5121448 62.9666376,56.1321134 67.6299501,51.5221556 C68.1282909,51.0295164 71.1716996,47.8591562 72.1813894,46.8789858 C76.7795128,42.4152937 80.2922308,41.192882 82.4643841,43.9073747 L82.881373,44.4284767 L82.5601396,45.0134862 C74.2109224,60.2185387 70.4097023,64.1254982 65.2350477,64.884722 C65.0908485,64.9058789 64.9646959,64.9234004 64.7282048,64.9555436 C63.8638949,65.0730181 63.5056448,65.1313987 62.9697643,65.2594225 C51.0173863,67.3941304 44.3824424,67.725296 35.4394531,67.275 C29.3181863,67.275 25.5501567,68.721579 24.0048418,71.4877097 L23.2604858,72.8201152 L8.83443701,53.8669624 L9.09774102,53.3160083 C11.1639109,48.9926225 14.6469273,45.7532745 19.5056752,43.6167601 C24.3778891,41.4743244 36.830327,41.4743244 57.1274846,43.5372933 L57.3058424,43.5554213 L57.4667949,43.6343797 C58.6257137,44.2029103 59.3471612,44.7225307 59.6755846,45.3317347 C60.210171,46.3233575 59.6700269,47.1977888 58.6183151,47.6578676 C57.2826238,48.2421752 54.471781,48.5353325 50.0352497,48.5964087 L49.874601,48.5856573 C42.6272835,47.5094743 38.2005068,48.4831348 36.4405162,51.3002776 Z"></path>
                    </g>
                    <g id="Group-17">
                        <g id="Path-21">
                            <use fill="#EBF3F9" fill-rule="evenodd" xlink:href="#path-2"></use>
                            <path stroke="#FFFFFF" stroke-width="2" d="M11.1726621,53.9805202 L23.09315,69.6418307 C25.3535125,66.9311606 29.5037808,65.6189038 35.4896009,65.6200082 C44.3392848,66.0643595 50.8246164,65.7406614 62.5582809,63.6469155 C63.1224231,63.5101142 63.5275635,63.4440924 64.4588471,63.317515 C64.6886339,63.286283 64.8095561,63.269488 64.9447165,63.2496573 C69.2483895,62.6182236 72.6260083,59.2065663 80.4278323,45.0831645 C79.1737557,44.3486461 76.9464541,45.3843708 73.57447,48.6577712 C72.5966259,49.6070269 69.5616972,52.7685535 69.0360035,53.2882325 C63.9364899,58.3294006 59.4672359,59.9355645 50.9840048,58.5817168 C49.1301827,58.2858634 47.3823039,58.0661038 45.5606771,57.8863923 C44.8618867,57.8174536 44.1807161,57.7568666 43.3620893,57.6891263 C43.1889456,57.6747989 41.8316094,57.5648129 41.4681195,57.5339038 C35.8056375,57.0523992 34.4394531,56.0382018 34.4394531,51.3729458 L34.4394531,51.1125669 L34.5664383,50.8852522 C36.7429199,46.9891571 41.9714205,45.7472047 50.0878893,46.9392147 C53.8224934,46.8850093 56.331273,46.6522601 57.503499,46.2844161 C57.3125263,46.1597525 57.0580897,46.012399 56.7433946,45.8523437 C36.9482895,43.8479984 24.7167072,43.8539064 20.3107311,45.7913255 C16.0866835,47.6487461 13.0525181,50.3730569 11.1726621,53.9805202 Z"></path>
                        </g>
                        <g id="Group-14" transform="translate(15.000000, 0.000000)">
                            <g id="Group-13">
                                <g id="Rectangle-15">
                                    <use fill="#EBF3F9" fill-rule="evenodd" xlink:href="#path-3"></use>
                                    <rect stroke="#24A1F5" stroke-width="2" x="-1" y="-1" width="56" height="40"></rect>
                                </g>
                                <g id="Rectangle-15">
                                    <use fill="#EBF3F9" fill-rule="evenodd" xlink:href="#path-4"></use>
                                    <rect stroke="#FFFFFF" stroke-width="2" x="1" y="1" width="52" height="36"></rect>
                                </g>
                            </g>
                            <g id="Group-13">
                                <g id="Rectangle-15">
                                    <use fill="#EBF3F9" fill-rule="evenodd" xlink:href="#path-5"></use>
                                    <rect stroke="#24A1F5" stroke-width="2" x="-1" y="-1" width="56" height="14"></rect>
                                </g>
                                <g id="Rectangle-15">
                                    <use fill="#EBF3F9" fill-rule="evenodd" xlink:href="#path-6"></use>
                                    <rect stroke="#FFFFFF" stroke-width="2" x="1" y="1" width="52" height="10"></rect>
                                </g>
                            </g>
                            <path d="M8,21 L40.6338184,21" id="Path-20" stroke="#24A1F5" stroke-width="2"></path>
                            <path d="M8,30 L23.0332964,30" id="Path-20-Copy" stroke="#24A1F5" stroke-width="2"></path>
                        </g>
                        <g id="Group-15" transform="translate(9.500000, 68.000000) rotate(50.000000) translate(-9.500000, -68.000000) translate(-1.000000, 65.000000)">
                            <g id="Rectangle">
                                <use fill="#EBF3F9" fill-rule="evenodd" xlink:href="#path-7"></use>
                                <rect stroke="#24A1F5" stroke-width="2" x="-1" y="-1" width="23" height="8"></rect>
                            </g>
                            <g id="Rectangle">
                                <use fill="#2FADFA" fill-rule="evenodd" xlink:href="#path-8"></use>
                                <rect stroke="#FFFFFF" stroke-width="2" x="1" y="1" width="19" height="4"></rect>
                            </g>
                        </g>
                    </g>
                </g>
            </g>
        </g>
    </g>
</svg>