<?xml version="1.0" encoding="UTF-8"?>
<svg width="30px" height="30px" viewBox="0 0 30 30" version="1.1" xmlns="http://www.w3.org/2000/svg" xmlns:xlink="http://www.w3.org/1999/xlink">
    <!-- Generator: Sketch 49.3 (51167) - http://www.bohemiancoding.com/sketch -->
    <title>Rectangle 54 Copy 2</title>
    <desc>Created with Sketch.</desc>
    <defs></defs>
    <g id="Page-1" stroke="none" stroke-width="1" fill="none" fill-rule="evenodd">
        <rect id="Rectangle-54-Copy-2" x="0" y="0" width="30" height="30"></rect>
        <g id="电话" fill="#FFFFFF" fill-rule="nonzero">
            <path d="M29.796598,21.993758 L29.6763122,21.8193235 C29.7407521,21.8796999 29.3575501,21.435362 29.3575501,21.435362 C29.3575501,21.435362 28.9978176,21.0161836 28.0543129,20.2389505 C27.2786896,19.6000631 26.3100903,18.865271 25.5547802,18.3688083 C24.6373078,17.7657295 23.9985022,17.3773153 24.0386287,17.4032532 L23.3647906,17.0673998 C23.0693418,16.9217678 22.5760105,16.9058875 22.2276848,17.0254259 C21.9129228,17.1334433 21.6359122,17.3790902 21.5073448,17.6026603 C21.5624407,17.5016178 21.2888678,17.8012889 20.7325028,18.7894813 C20.4940563,19.2208346 20.2143581,19.8298296 19.8776578,20.4280198 C19.4207966,21.2397226 18.2360015,22.0428936 17.055394,21.3769785 C15.5569932,20.5318959 13.6311074,19.3656881 11.6539071,17.4942381 C9.36206976,15.3276319 8.10927207,13.6659891 7.39768248,12.0853671 C7.13864137,11.5099387 7.25636459,10.304902 8.20302566,9.84518204 C9.13812376,9.3910669 9.67614426,9.27647946 10.2668543,8.9231577 C10.8016559,8.5908229 10.6959331,8.70173611 11.3197381,8.29345597 C11.3449266,8.27517801 11.5445904,8.10202015 11.5724352,8.08355539 C11.5724352,8.08355539 11.618937,8.03663059 11.6566572,7.9996076 C12.0484221,7.62950254 12.1474571,7.1388315 11.9514497,6.65622522 L11.8672277,6.40435075 C11.8672277,6.40435075 11.4172418,5.38645281 10.7301219,4.22133491 C10.3659831,3.60393265 9.83640038,2.83566726 9.42454095,2.29022467 C8.30987352,0.813883442 7.31877327,0.359114425 7.31877327,0.359114425 C7.31877327,0.359114425 7.0410127,0.21329564 6.897601,0.149213848 C6.33267322,-0.0880880959 5.83140414,-0.018526 5.33932289,0.191187744 C4.2734698,0.5835564 3.66641544,1.11996899 2.84260282,1.79475842 C1.04200293,3.26963614 -0.219888899,5.31866562 0.0320269605,7.10747564 C0.424510659,9.90518477 3.94873863,16.0667211 8.55672661,20.4245635 C13.1660897,24.7830598 19.6824628,28.1180223 22.6361378,28.4861034 C24.6210884,28.7380713 26.3024962,27.7277398 27.9762787,26.1907731 C28.5656136,25.6495964 29.3356429,24.7626957 29.731658,23.9185472 C29.954354,23.4439122 30.1717685,22.5248149 29.796598,21.993758 Z" id="Shape"></path>
        </g>
    </g>
</svg>