<?xml version="1.0" encoding="UTF-8"?>
<svg width="30px" height="30px" viewBox="0 0 30 30" version="1.1" xmlns="http://www.w3.org/2000/svg" xmlns:xlink="http://www.w3.org/1999/xlink">
    <!-- Generator: Sketch 49.3 (51167) - http://www.bohemiancoding.com/sketch -->
    <title>Rectangle 54 Copy</title>
    <desc>Created with Sketch.</desc>
    <defs></defs>
    <g id="Page-1" stroke="none" stroke-width="1" fill="none" fill-rule="evenodd">
        <rect id="Rectangle-54-Copy" x="0" y="0" width="30" height="30"></rect>
        <g id="微信" transform="translate(0.000000, 2.000000)" fill="#FFFFFF" fill-rule="nonzero">
            <path d="M10.6195711,18.465197 C9.2955212,18.465197 8.23194015,18.1894065 6.90405985,17.9212768 L3.19493267,19.8237207 L4.25468329,16.5576459 C1.6001995,14.6603092 0.0105735661,12.2126683 0.0105735661,9.2325985 C0.0105735661,4.06663342 4.78838903,0 10.6195711,0 C15.8340549,0 20.4063042,3.24692269 21.325606,7.62254364 C20.9862113,7.58159565 20.6447352,7.56028004 20.3028828,7.55870324 C15.2620449,7.55870324 11.2835112,11.4057257 11.2835112,16.1490673 C11.2835112,16.9381347 11.4022544,17.6978354 11.6116509,18.4230623 C11.2835112,18.4485985 10.952818,18.465197 10.6195711,18.465197 Z M26.2719601,22.2675312 L27.0712419,24.9807481 L24.1613965,23.3489875 C23.0990923,23.6222244 22.0329576,23.8929077 20.9757606,23.8929077 C15.9285387,23.8929077 11.9551122,20.3650873 11.9551122,16.0162793 C11.9551122,11.6751322 15.9310923,8.13965087 20.9757606,8.13965087 C25.740808,8.13965087 29.9874713,11.676409 29.9874713,16.0175561 C29.9874713,18.465197 28.400399,20.6357706 26.2719601,22.2675312 Z M6.56315212,3.87511222 C5.68598504,3.87511222 4.79860349,4.46244389 4.79860349,5.35620948 C4.79860349,6.24486783 5.68598504,6.84113716 6.56315212,6.84113716 C7.4403192,6.84113716 8.02509726,6.24486783 8.02509726,5.35493267 C8.02509726,4.46244389 7.4403192,3.87383541 6.56315212,3.87383541 L6.56315212,3.87511222 Z M14.7640898,6.84369077 C15.6450873,6.84369077 16.2285885,6.24742145 16.2285885,5.35748628 C16.2285885,4.4637207 15.6425337,3.87638903 14.7640898,3.87638903 C13.8830923,3.87638903 13.0020948,4.46499751 13.0020948,5.35748628 C13.0020948,6.24742145 13.8830923,6.84369077 14.7640898,6.84369077 Z M18.5702544,12.4910125 C17.9880299,12.4910125 17.3994214,13.086005 17.3994214,13.6771671 C17.3994214,14.2772668 17.9867531,14.8658753 18.5740848,14.8658753 C19.4601895,14.8658753 20.0385835,14.2785436 20.0385835,13.6771671 C20.0385835,13.086005 19.4576359,12.4897357 18.5702544,12.4897357 L18.5702544,12.4910125 Z M25.0168579,12.4910125 C24.4359102,12.4910125 23.8536858,13.086005 23.8536858,13.6771671 C23.8536858,14.2772668 24.4384638,14.8658753 25.015581,14.8658753 C25.8965786,14.8658753 26.4839102,14.2785436 26.4839102,13.6771671 C26.4813566,13.086005 25.8965786,12.4897357 25.015581,12.4897357 L25.0168579,12.4910125 Z" id="Shape"></path>
        </g>
    </g>
</svg>